<?xml version="1.0" encoding="utf-8"?>
<!-- Generator: Adobe Illustrator 19.2.0, SVG Export Plug-In . SVG Version: 6.00 Build 0)  -->
<svg version="1.1" id="Layer_1" xmlns="http://www.w3.org/2000/svg" xmlns:xlink="http://www.w3.org/1999/xlink" x="0px" y="0px"
	 viewBox="0 0 67.1 47.2" style="enable-background:new 0 0 67.1 47.2;" xml:space="preserve">
<style type="text/css">
	.st0{fill:#FFFFFF;}
</style>
<g>
	<path class="st0" d="M36.5,12.8C36.4,12.8,36.4,12.8,36.5,12.8l1.6-3l-8.9-5.2l-1.7,2.9c-6.8-1.8-14.3-0.1-19.6,5.2
		C0,20.6,0,33.4,7.9,41.3s20.7,7.9,28.6,0C44.3,33.5,44.3,20.7,36.5,12.8z"/>
	<path class="st0" d="M52.8,19c-1.2-0.9-1.9-2.9-1.9-5.6c0-7.1-3.9-10.6-7.5-11.6C40.1,1,36.8,1.9,34,4.1l3.8,2.2
		c1.6-0.8,3.2-1,4.5-0.7c2.8,0.7,4.5,3.6,4.5,7.7c0,6.7,3.3,8.9,4.8,9.6c0.8,0.4,1.7,0.6,2.6,0.6c0,0,0,0,0.1,0L52.8,19z"/>
</g>
<polygon class="st0" points="61.8,21.9 67.1,23.1 62.6,20.1 65,19.3 62.8,18.5 66.4,15.7 61.9,16.9 62.4,14.8 60.6,16.1 60.6,11.1 
	58.7,15.5 57.3,13.8 57,15.8 53.4,12.9 55.8,17 52.9,16.6 55.6,18.6 57,22.8 56.6,27.1 58.7,23.2 60.9,29.9 60.7,23.2 64,24.9 "/>
</svg>
